<svg xmlns="http://www.w3.org/2000/svg" viewBox="0 0 1200 520" role="img" aria-labelledby="title desc">
  <title id="title">Frontier Models — Scores / 100</title>
  <desc id="desc">Historical benchmark scores for Astra Max, Fable 5.1 Max, Sun Max V2 and Grok 4.6; Grok 4.7 Solar, Gemini 3.8 Flash and Luna Max are pending.</desc>
  <rect width="1200" height="520" rx="28" fill="#ffffff"/>
  <g font-family="Inter,Segoe UI,Arial,sans-serif">
    <text x="600" y="48" text-anchor="middle" fill="#172033" font-size="28" font-weight="800">Frontier Models — Scores / 100</text>
    <text x="600" y="72" text-anchor="middle" fill="#64748b" font-size="15">All benchmark runs · pending evaluations are unranked</text>

    <g stroke="#d9e0ea" stroke-width="1">
      <line x1="72" y1="104" x2="1128" y2="104"/>
      <line x1="72" y1="168" x2="1128" y2="168"/>
      <line x1="72" y1="232" x2="1128" y2="232"/>
      <line x1="72" y1="296" x2="1128" y2="296"/>
      <line x1="72" y1="360" x2="1128" y2="360"/>
    </g>
    <g fill="#475569" font-size="12" text-anchor="end">
      <text x="62" y="108">100</text>
      <text x="62" y="172">80</text>
      <text x="62" y="236">60</text>
      <text x="62" y="300">40</text>
      <text x="62" y="364">20</text>
      <text x="62" y="404">0</text>
    </g>
    <line x1="72" y1="400" x2="1128" y2="400" stroke="#64748b"/>

    <g>
      <rect x="85" y="119" width="80" height="281" rx="5" fill="#7c3aed"/>
      <text x="125" y="108" text-anchor="middle" fill="#172033" font-size="15" font-weight="800">95.25</text>
      <text x="125" y="430" text-anchor="middle" fill="#172033" font-size="12" font-weight="700">Astra Max</text>
      <text x="125" y="448" text-anchor="middle" fill="#64748b" font-size="11">GPT-6</text>

      <rect x="245" y="125" width="80" height="275" rx="5" fill="#f97316"/>
      <text x="285" y="114" text-anchor="middle" fill="#172033" font-size="15" font-weight="800">93.30</text>
      <text x="285" y="430" text-anchor="middle" fill="#172033" font-size="12" font-weight="700">Fable 5.1</text>
      <text x="285" y="448" text-anchor="middle" fill="#64748b" font-size="11">Max</text>

      <rect x="405" y="190" width="80" height="210" rx="5" fill="#fbbd24"/>
      <text x="445" y="179" text-anchor="middle" fill="#172033" font-size="15" font-weight="800">71.20</text>
      <text x="445" y="430" text-anchor="middle" fill="#172033" font-size="12" font-weight="700">Sun Max V2</text>
      <text x="445" y="448" text-anchor="middle" fill="#64748b" font-size="11">GPT-5.6</text>
      <text x="445" y="465" text-anchor="middle" fill="#f97316" font-size="10">outdated</text>

      <rect x="565" y="300" width="80" height="100" rx="5" fill="#111827"/>
      <text x="605" y="289" text-anchor="middle" fill="#172033" font-size="15" font-weight="800">33.80</text>
      <text x="605" y="430" text-anchor="middle" fill="#172033" font-size="12" font-weight="700">Grok 4.6</text>
      <text x="605" y="448" text-anchor="middle" fill="#64748b" font-size="11">XHIGH</text>
      <text x="605" y="465" text-anchor="middle" fill="#64748b" font-size="10">archived</text>

      <rect x="725" y="104" width="80" height="296" rx="5" fill="#ffffff" stroke="#a855f7" stroke-width="3" stroke-dasharray="8 7"/>
      <text x="765" y="246" text-anchor="middle" fill="#9333ea" font-size="15" font-weight="800">PENDING</text>
      <text x="765" y="270" text-anchor="middle" fill="#64748b" font-size="11">not scored yet</text>
      <text x="765" y="430" text-anchor="middle" fill="#172033" font-size="12" font-weight="700">Grok 4.7</text>
      <text x="765" y="448" text-anchor="middle" fill="#9333ea" font-size="11">Solar</text>
      <text x="765" y="465" text-anchor="middle" fill="#9333ea" font-size="10">pending</text>

      <rect x="885" y="104" width="80" height="296" rx="5" fill="#ffffff" stroke="#4f8cff" stroke-width="3" stroke-dasharray="8 7"/>
      <text x="925" y="246" text-anchor="middle" fill="#4f8cff" font-size="15" font-weight="800">PENDING</text>
      <text x="925" y="270" text-anchor="middle" fill="#64748b" font-size="11">not scored yet</text>
      <text x="925" y="430" text-anchor="middle" fill="#172033" font-size="12" font-weight="700">Gemini 3.8</text>
      <text x="925" y="448" text-anchor="middle" fill="#2563eb" font-size="11">Flash High</text>
      <text x="925" y="465" text-anchor="middle" fill="#2563eb" font-size="10">pending</text>

      <rect x="1045" y="104" width="80" height="296" rx="5" fill="#ffffff" stroke="#38bdf8" stroke-width="3" stroke-dasharray="8 7"/>
      <text x="1085" y="246" text-anchor="middle" fill="#0284c7" font-size="15" font-weight="800">PENDING</text>
      <text x="1085" y="270" text-anchor="middle" fill="#64748b" font-size="11">not scored yet</text>
      <text x="1085" y="430" text-anchor="middle" fill="#172033" font-size="12" font-weight="700">Luna Max</text>
      <text x="1085" y="448" text-anchor="middle" fill="#0284c7" font-size="11">GPT-5.6</text>
      <text x="1085" y="465" text-anchor="middle" fill="#0284c7" font-size="10">non-frontier</text>
    </g>
  </g>
</svg>
